<svg xmlns="http://www.w3.org/2000/svg" xmlns:xlink="http://www.w3.org/1999/xlink" width="1920" zoomAndPan="magnify" viewBox="0 0 1440 809.999993" height="1080" preserveAspectRatio="xMidYMid meet" version="1.0"><defs><clipPath id="20484feeaf"><path d="M 303.832031 0 L 1122.082031 0 L 1122.082031 810 L 303.832031 810 Z M 303.832031 0 " clip-rule="nonzero"/></clipPath></defs><g clip-path="url(#20484feeaf)"><path fill="#f1f2f2" d="M 1122.082031 409.125 C 1122.082031 635.144531 938.976562 818.25 712.957031 818.25 C 486.941406 818.25 303.832031 635.144531 303.832031 409.125 C 303.832031 183.105469 486.941406 0 712.957031 0 C 938.976562 0 1122.082031 183.105469 1122.082031 409.125 Z M 1122.082031 409.125 " fill-opacity="1" fill-rule="nonzero"/></g><path fill="#808285" d="M 859.980469 330.128906 C 859.980469 411.320312 794.148438 477.148438 712.957031 477.148438 C 631.769531 477.148438 565.9375 411.320312 565.9375 330.128906 C 565.9375 248.9375 631.769531 183.105469 712.957031 183.105469 C 794.148438 183.105469 859.980469 248.9375 859.980469 330.128906 Z M 712.957031 521.035156 C 573.25 521.035156 455.976562 596.863281 424.28125 699.023438 C 498.15625 772.65625 600.316406 818.25 712.957031 818.25 C 825.601562 818.25 927.761719 772.65625 1001.636719 699.023438 C 969.941406 596.863281 852.664062 521.035156 712.957031 521.035156 Z M 712.957031 521.035156 " fill-opacity="1" fill-rule="nonzero"/></svg>