<svg xmlns="http://www.w3.org/2000/svg" xmlns:xlink="http://www.w3.org/1999/xlink" width="1080" zoomAndPan="magnify" viewBox="0 0 810 1439.999935" height="1920" preserveAspectRatio="xMidYMid meet" version="1.0"><defs><filter x="0%" y="0%" width="100%" height="100%" id="9a61807459"><feColorMatrix values="0 0 0 0 1 0 0 0 0 1 0 0 0 0 1 0 0 0 1 0" color-interpolation-filters="sRGB"/></filter><mask id="90a45aa862"><g filter="url(#9a61807459)"><rect x="-81" width="972" fill="#000000" y="-143.999994" height="1727.999922" fill-opacity="0.22"/></g></mask><clipPath id="693626c37f"><path d="M 755.347656 1373.882812 L 810 1373.882812 L 810 1440 L 755.347656 1440 Z M 755.347656 1373.882812 " clip-rule="nonzero"/></clipPath><clipPath id="b866572f9c"><path d="M 0.347656 0.882812 L 55 0.882812 L 55 67 L 0.347656 67 Z M 0.347656 0.882812 " clip-rule="nonzero"/></clipPath><clipPath id="df4112a547"><rect x="0" width="55" y="0" height="67"/></clipPath><mask id="03cdcd828c"><g filter="url(#9a61807459)"><rect x="-294.84" width="1399.68" fill="#000000" y="-524.159976" height="2488.319888" fill-opacity="0.6"/></g></mask><clipPath id="e88e26f70f"><path d="M 0.800781 0.664062 L 90.410156 0.664062 L 90.410156 99.835938 L 0.800781 99.835938 Z M 0.800781 0.664062 " clip-rule="nonzero"/></clipPath><clipPath id="1174c4d441"><path d="M 0.800781 0.664062 L 90.410156 0.664062 L 90.410156 99.835938 L 0.800781 99.835938 Z M 0.800781 0.664062 " clip-rule="nonzero"/></clipPath><clipPath id="eee8e62278"><rect x="0" width="91" y="0" height="100"/></clipPath><clipPath id="e324ec8196"><rect x="0" width="91" y="0" height="101"/></clipPath><mask id="743d7626ff"><g filter="url(#9a61807459)"><rect x="-294.84" width="1399.68" fill="#000000" y="-524.159976" height="2488.319888" fill-opacity="0.36"/></g></mask><clipPath id="cac9503e9f"><path d="M 0.605469 0.847656 L 55.257812 0.847656 L 55.257812 66.964844 L 0.605469 66.964844 Z M 0.605469 0.847656 " clip-rule="nonzero"/></clipPath><clipPath id="3a8d6be791"><path d="M 0.605469 0.847656 L 55.257812 0.847656 L 55.257812 66.964844 L 0.605469 66.964844 Z M 0.605469 0.847656 " clip-rule="nonzero"/></clipPath><clipPath id="98d80df225"><rect x="0" width="56" y="0" height="67"/></clipPath><clipPath id="ba41d898b2"><rect x="0" width="56" y="0" height="68"/></clipPath><mask id="1686a7ccd0"><g filter="url(#9a61807459)"><rect x="-294.84" width="1399.68" fill="#000000" y="-524.159976" height="2488.319888" fill-opacity="0.36"/></g></mask><clipPath id="a2f1c405f8"><path d="M 0.601562 0.496094 L 51.585938 0.496094 L 51.585938 93.738281 L 0.601562 93.738281 Z M 0.601562 0.496094 " clip-rule="nonzero"/></clipPath><clipPath id="4a32b3b226"><path d="M 0.601562 0.496094 L 51.585938 0.496094 L 51.585938 93.738281 L 0.601562 93.738281 Z M 0.601562 0.496094 " clip-rule="nonzero"/></clipPath><clipPath id="89febeac2c"><rect x="0" width="52" y="0" height="94"/></clipPath><clipPath id="2520e0dbfb"><rect x="0" width="52" y="0" height="95"/></clipPath><mask id="9700de6ed0"><g filter="url(#9a61807459)"><rect x="-294.84" width="1399.68" fill="#000000" y="-524.159976" height="2488.319888" fill-opacity="0.6"/></g></mask><clipPath id="633f5eedb8"><path d="M 0.261719 0.136719 L 151.988281 0.136719 L 151.988281 205.988281 L 0.261719 205.988281 Z M 0.261719 0.136719 " clip-rule="nonzero"/></clipPath><clipPath id="32eb4cd240"><path d="M 0.261719 0.136719 L 151.988281 0.136719 L 151.988281 205.988281 L 0.261719 205.988281 Z M 0.261719 0.136719 " clip-rule="nonzero"/></clipPath><clipPath id="f721fbc42d"><rect x="0" width="152" y="0" height="206"/></clipPath><clipPath id="476f5d878e"><rect x="0" width="153" y="0" height="207"/></clipPath><mask id="74d79bb72f"><g filter="url(#9a61807459)"><rect x="-294.84" width="1399.68" fill="#000000" y="-524.159976" height="2488.319888" fill-opacity="0.6"/></g></mask><clipPath id="989cc65f69"><path d="M 0.433594 0.722656 L 87.042969 0.722656 L 87.042969 128.519531 L 0.433594 128.519531 Z M 0.433594 0.722656 " clip-rule="nonzero"/></clipPath><clipPath id="aa4968ffb7"><path d="M 0.433594 0.722656 L 87.042969 0.722656 L 87.042969 128.519531 L 0.433594 128.519531 Z M 0.433594 0.722656 " clip-rule="nonzero"/></clipPath><clipPath id="5e4ec4e840"><rect x="0" width="88" y="0" height="129"/></clipPath><clipPath id="21217c22cc"><rect x="0" width="88" y="0" height="129"/></clipPath><mask id="210c0966fa"><g filter="url(#9a61807459)"><rect x="-294.84" width="1399.68" fill="#000000" y="-524.159976" height="2488.319888" fill-opacity="0.36"/></g></mask><clipPath id="bca7dc9c57"><path d="M 0.367188 0.425781 L 46.289062 0.425781 L 46.289062 72.496094 L 0.367188 72.496094 Z M 0.367188 0.425781 " clip-rule="nonzero"/></clipPath><clipPath id="65ab91ea98"><path d="M 0.367188 0.425781 L 46.289062 0.425781 L 46.289062 72.496094 L 0.367188 72.496094 Z M 0.367188 0.425781 " clip-rule="nonzero"/></clipPath><clipPath id="175a0c6ad8"><rect x="0" width="47" y="0" height="73"/></clipPath><clipPath id="c38385c313"><rect x="0" width="47" y="0" height="73"/></clipPath><mask id="9f0a54b134"><g filter="url(#9a61807459)"><rect x="-294.84" width="1399.68" fill="#000000" y="-524.159976" height="2488.319888" fill-opacity="0.36"/></g></mask><clipPath id="c384f61314"><path d="M 0.8125 0.644531 L 40.660156 0.644531 L 40.660156 37.980469 L 0.8125 37.980469 Z M 0.8125 0.644531 " clip-rule="nonzero"/></clipPath><clipPath id="f0bfec261e"><path d="M 0.8125 0.644531 L 40.660156 0.644531 L 40.660156 37.980469 L 0.8125 37.980469 Z M 0.8125 0.644531 " clip-rule="nonzero"/></clipPath><clipPath id="bd5c88cfaf"><rect x="0" width="41" y="0" height="38"/></clipPath><clipPath id="16f8679452"><rect x="0" width="41" y="0" height="38"/></clipPath><clipPath id="6609f31349"><path d="M 347.496094 862.957031 L 402.148438 862.957031 L 402.148438 929.074219 L 347.496094 929.074219 Z M 347.496094 862.957031 " clip-rule="nonzero"/></clipPath><clipPath id="37d022a990"><path d="M 0.496094 0.957031 L 55.148438 0.957031 L 55.148438 67.074219 L 0.496094 67.074219 Z M 0.496094 0.957031 " clip-rule="nonzero"/></clipPath><clipPath id="9ecef19af5"><rect x="0" width="56" y="0" height="68"/></clipPath><mask id="3dea957f5f"><g filter="url(#9a61807459)"><rect x="-294.84" width="1399.68" fill="#000000" y="-524.159976" height="2488.319888" fill-opacity="0.36"/></g></mask><clipPath id="aeb3619055"><path d="M 0.738281 0.402344 L 60.503906 0.402344 L 60.503906 55.265625 L 0.738281 55.265625 Z M 0.738281 0.402344 " clip-rule="nonzero"/></clipPath><clipPath id="146ff39c7d"><path d="M 0.738281 0.402344 L 60.503906 0.402344 L 60.503906 55.265625 L 0.738281 55.265625 Z M 0.738281 0.402344 " clip-rule="nonzero"/></clipPath><clipPath id="964d5989a1"><rect x="0" width="61" y="0" height="56"/></clipPath><clipPath id="268a26b00d"><rect x="0" width="61" y="0" height="56"/></clipPath><mask id="06744689b2"><g filter="url(#9a61807459)"><rect x="-294.84" width="1399.68" fill="#000000" y="-524.159976" height="2488.319888" fill-opacity="0.85"/></g></mask><clipPath id="b7e3c530ee"><path d="M 0.574219 0.6875 L 46.496094 0.6875 L 46.496094 72.757812 L 0.574219 72.757812 Z M 0.574219 0.6875 " clip-rule="nonzero"/></clipPath><clipPath id="d589f8d33f"><path d="M 0.574219 0.6875 L 46.496094 0.6875 L 46.496094 72.757812 L 0.574219 72.757812 Z M 0.574219 0.6875 " clip-rule="nonzero"/></clipPath><clipPath id="567b6e5517"><rect x="0" width="47" y="0" height="73"/></clipPath><clipPath id="07b4cd08e7"><rect x="0" width="47" y="0" height="73"/></clipPath><clipPath id="13c5e721c7"><path d="M 516.136719 929.074219 L 582.601562 929.074219 L 582.601562 993.972656 L 516.136719 993.972656 Z M 516.136719 929.074219 " clip-rule="nonzero"/></clipPath><clipPath id="999b44594c"><path d="M 0.136719 0.0742188 L 66.601562 0.0742188 L 66.601562 64.972656 L 0.136719 64.972656 Z M 0.136719 0.0742188 " clip-rule="nonzero"/></clipPath><clipPath id="bdd9e5c8b3"><rect x="0" width="67" y="0" height="65"/></clipPath><mask id="b096b0e067"><g filter="url(#9a61807459)"><rect x="-294.84" width="1399.68" fill="#000000" y="-524.159976" height="2488.319888" fill-opacity="0.98"/></g></mask><clipPath id="9ac6998280"><path d="M 0.148438 0.792969 L 54.796875 0.792969 L 54.796875 66.90625 L 0.148438 66.90625 Z M 0.148438 0.792969 " clip-rule="nonzero"/></clipPath><clipPath id="21055003ab"><path d="M 0.148438 0.792969 L 54.796875 0.792969 L 54.796875 66.90625 L 0.148438 66.90625 Z M 0.148438 0.792969 " clip-rule="nonzero"/></clipPath><clipPath id="799f1f034d"><rect x="0" width="55" y="0" height="67"/></clipPath><clipPath id="a5ed7a718a"><rect x="0" width="55" y="0" height="68"/></clipPath><clipPath id="9f58cd204c"><path d="M 442.664062 796.839844 L 497.316406 796.839844 L 497.316406 862.957031 L 442.664062 862.957031 Z M 442.664062 796.839844 " clip-rule="nonzero"/></clipPath><clipPath id="9211103da9"><path d="M 0.664062 0.839844 L 55.316406 0.839844 L 55.316406 66.957031 L 0.664062 66.957031 Z M 0.664062 0.839844 " clip-rule="nonzero"/></clipPath><clipPath id="e66e8aaeb3"><rect x="0" width="56" y="0" height="67"/></clipPath><mask id="a09c8e3eee"><g filter="url(#9a61807459)"><rect x="-294.84" width="1399.68" fill="#000000" y="-524.159976" height="2488.319888" fill-opacity="0.36"/></g></mask><clipPath id="d7e6450234"><path d="M 0.496094 0.351562 L 55.148438 0.351562 L 55.148438 66.46875 L 0.496094 66.46875 Z M 0.496094 0.351562 " clip-rule="nonzero"/></clipPath><clipPath id="507deda18a"><path d="M 0.496094 0.351562 L 55.148438 0.351562 L 55.148438 66.46875 L 0.496094 66.46875 Z M 0.496094 0.351562 " clip-rule="nonzero"/></clipPath><clipPath id="a3383fdaab"><rect x="0" width="56" y="0" height="67"/></clipPath><clipPath id="438602888f"><rect x="0" width="56" y="0" height="67"/></clipPath><clipPath id="a302c5b2c2"><path d="M 210.085938 653.523438 L 301.371094 653.523438 L 301.371094 742.160156 L 210.085938 742.160156 Z M 210.085938 653.523438 " clip-rule="nonzero"/></clipPath><clipPath id="9c7e1bf179"><path d="M 0.0859375 0.523438 L 91.371094 0.523438 L 91.371094 89.160156 L 0.0859375 89.160156 Z M 0.0859375 0.523438 " clip-rule="nonzero"/></clipPath><clipPath id="e4e09fcb68"><rect x="0" width="92" y="0" height="90"/></clipPath><mask id="78b2be0c3b"><g filter="url(#9a61807459)"><rect x="-294.84" width="1399.68" fill="#000000" y="-524.159976" height="2488.319888" fill-opacity="0.36"/></g></mask><clipPath id="1595d3caca"><path d="M 0.394531 0.914062 L 55.042969 0.914062 L 55.042969 67.03125 L 0.394531 67.03125 Z M 0.394531 0.914062 " clip-rule="nonzero"/></clipPath><clipPath id="ce98f9b35e"><path d="M 0.394531 0.914062 L 55.042969 0.914062 L 55.042969 67.03125 L 0.394531 67.03125 Z M 0.394531 0.914062 " clip-rule="nonzero"/></clipPath><clipPath id="c923638429"><rect x="0" width="56" y="0" height="68"/></clipPath><clipPath id="500dd18640"><rect x="0" width="56" y="0" height="68"/></clipPath><mask id="7b9f5c761d"><g filter="url(#9a61807459)"><rect x="-294.84" width="1399.68" fill="#000000" y="-524.159976" height="2488.319888" fill-opacity="0.36"/></g></mask><clipPath id="b89d58d8a1"><path d="M 0.660156 0.898438 L 55.3125 0.898438 L 55.3125 67.015625 L 0.660156 67.015625 Z M 0.660156 0.898438 " clip-rule="nonzero"/></clipPath><clipPath id="e9fa826943"><path d="M 0.660156 0.898438 L 55.3125 0.898438 L 55.3125 67.015625 L 0.660156 67.015625 Z M 0.660156 0.898438 " clip-rule="nonzero"/></clipPath><clipPath id="b97a12f62d"><rect x="0" width="56" y="0" height="68"/></clipPath><clipPath id="60571c8fd4"><rect x="0" width="56" y="0" height="68"/></clipPath><mask id="2d00419077"><g filter="url(#9a61807459)"><rect x="-294.84" width="1399.68" fill="#000000" y="-524.159976" height="2488.319888" fill-opacity="0.6"/></g></mask><clipPath id="26472f2a11"><path d="M 0.3125 0.328125 L 71.050781 0.328125 L 71.050781 139.964844 L 0.3125 139.964844 Z M 0.3125 0.328125 " clip-rule="nonzero"/></clipPath><clipPath id="9298bac7f8"><path d="M 0.3125 0.328125 L 71.050781 0.328125 L 71.050781 139.964844 L 0.3125 139.964844 Z M 0.3125 0.328125 " clip-rule="nonzero"/></clipPath><clipPath id="b78e7817d0"><rect x="0" width="72" y="0" height="140"/></clipPath><clipPath id="a8a270c5ff"><rect x="0" width="72" y="0" height="141"/></clipPath><mask id="b7affa0088"><g filter="url(#9a61807459)"><rect x="-294.84" width="1399.68" fill="#000000" y="-524.159976" height="2488.319888" fill-opacity="0.6"/></g></mask><clipPath id="ec3f52472e"><path d="M 0.796875 0.964844 L 95.964844 0.964844 L 95.964844 196.894531 L 0.796875 196.894531 Z M 0.796875 0.964844 " clip-rule="nonzero"/></clipPath><clipPath id="864ebf3f16"><path d="M 0.796875 0.964844 L 95.964844 0.964844 L 95.964844 196.894531 L 0.796875 196.894531 Z M 0.796875 0.964844 " clip-rule="nonzero"/></clipPath><clipPath id="935b3eaefd"><rect x="0" width="96" y="0" height="197"/></clipPath><clipPath id="385c295eb5"><rect x="0" width="96" y="0" height="198"/></clipPath><mask id="f294ec2352"><g filter="url(#9a61807459)"><rect x="-294.84" width="1399.68" fill="#000000" y="-524.159976" height="2488.319888" fill-opacity="0.36"/></g></mask><clipPath id="7ed49e2de3"><path d="M 0.707031 0.648438 L 92.496094 0.648438 L 92.496094 104.699219 L 0.707031 104.699219 Z M 0.707031 0.648438 " clip-rule="nonzero"/></clipPath><clipPath id="6d2acb92f8"><path d="M 0.707031 0.648438 L 92.496094 0.648438 L 92.496094 104.699219 L 0.707031 104.699219 Z M 0.707031 0.648438 " clip-rule="nonzero"/></clipPath><clipPath id="a918297a16"><rect x="0" width="93" y="0" height="105"/></clipPath><clipPath id="383b87c31f"><rect x="0" width="93" y="0" height="106"/></clipPath><clipPath id="5d534452b0"><path d="M 118.296875 757.148438 L 210.085938 757.148438 L 210.085938 829.898438 L 118.296875 829.898438 Z M 118.296875 757.148438 " clip-rule="nonzero"/></clipPath><clipPath id="c346bf7afc"><path d="M 0.296875 0.148438 L 92.085938 0.148438 L 92.085938 72.898438 L 0.296875 72.898438 Z M 0.296875 0.148438 " clip-rule="nonzero"/></clipPath><clipPath id="ec8b9f529c"><rect x="0" width="93" y="0" height="73"/></clipPath><clipPath id="b0193533da"><path d="M 744.640625 1338.460938 L 799.292969 1338.460938 L 799.292969 1404.574219 L 744.640625 1404.574219 Z M 744.640625 1338.460938 " clip-rule="nonzero"/></clipPath><clipPath id="4522749288"><path d="M 0.640625 0.460938 L 55.292969 0.460938 L 55.292969 66.574219 L 0.640625 66.574219 Z M 0.640625 0.460938 " clip-rule="nonzero"/></clipPath><clipPath id="b52d14fd20"><rect x="0" width="56" y="0" height="67"/></clipPath><clipPath id="5a6fed235a"><path d="M 577.089844 1190.238281 L 666.703125 1190.238281 L 666.703125 1289.410156 L 577.089844 1289.410156 Z M 577.089844 1190.238281 " clip-rule="nonzero"/></clipPath><clipPath id="0732ebea78"><path d="M 0.0898438 0.238281 L 89.703125 0.238281 L 89.703125 99.410156 L 0.0898438 99.410156 Z M 0.0898438 0.238281 " clip-rule="nonzero"/></clipPath><clipPath id="f1e7b9b358"><rect x="0" width="90" y="0" height="100"/></clipPath><clipPath id="aad627fffe"><path d="M 621.894531 1060.425781 L 676.546875 1060.425781 L 676.546875 1126.539062 L 621.894531 1126.539062 Z M 621.894531 1060.425781 " clip-rule="nonzero"/></clipPath><clipPath id="4cdcd426ae"><path d="M 0.894531 0.425781 L 55.546875 0.425781 L 55.546875 66.539062 L 0.894531 66.539062 Z M 0.894531 0.425781 " clip-rule="nonzero"/></clipPath><clipPath id="ffa1c160a7"><rect x="0" width="56" y="0" height="67"/></clipPath><clipPath id="fb62e0eb0f"><path d="M 45.894531 72.070312 L 96.878906 72.070312 L 96.878906 165.316406 L 45.894531 165.316406 Z M 45.894531 72.070312 " clip-rule="nonzero"/></clipPath><clipPath id="f3f712f102"><path d="M 0.894531 0.0703125 L 51.878906 0.0703125 L 51.878906 93.316406 L 0.894531 93.316406 Z M 0.894531 0.0703125 " clip-rule="nonzero"/></clipPath><clipPath id="7b28b93b97"><rect x="0" width="52" y="0" height="94"/></clipPath><clipPath id="5fd8da6721"><path d="M 135.722656 196.699219 L 287.449219 196.699219 L 287.449219 402.554688 L 135.722656 402.554688 Z M 135.722656 196.699219 " clip-rule="nonzero"/></clipPath><clipPath id="1bfbc09a12"><path d="M 0.722656 0.699219 L 152.449219 0.699219 L 152.449219 206.554688 L 0.722656 206.554688 Z M 0.722656 0.699219 " clip-rule="nonzero"/></clipPath><clipPath id="e7a5b92877"><rect x="0" width="153" y="0" height="207"/></clipPath><clipPath id="d79dc259a8"><path d="M 135.722656 441.296875 L 222.335938 441.296875 L 222.335938 569.09375 L 135.722656 569.09375 Z M 135.722656 441.296875 " clip-rule="nonzero"/></clipPath><clipPath id="6ebf3209fc"><path d="M 0.722656 0.296875 L 87.335938 0.296875 L 87.335938 128.09375 L 0.722656 128.09375 Z M 0.722656 0.296875 " clip-rule="nonzero"/></clipPath><clipPath id="35909757c6"><rect x="0" width="88" y="0" height="129"/></clipPath><clipPath id="1073952dbd"><path d="M 222.660156 0 L 268.578125 0 L 268.578125 72.070312 L 222.660156 72.070312 Z M 222.660156 0 " clip-rule="nonzero"/></clipPath><clipPath id="278e705523"><path d="M 0.660156 0 L 46.578125 0 L 46.578125 72.070312 L 0.660156 72.070312 Z M 0.660156 0 " clip-rule="nonzero"/></clipPath><clipPath id="72a394323f"><rect x="0" width="47" y="0" height="73"/></clipPath><clipPath id="5c2907f6de"><path d="M 67.105469 365.21875 L 106.949219 365.21875 L 106.949219 402.554688 L 67.105469 402.554688 Z M 67.105469 365.21875 " clip-rule="nonzero"/></clipPath><clipPath id="d796270479"><path d="M 0.105469 0.21875 L 39.949219 0.21875 L 39.949219 37.554688 L 0.105469 37.554688 Z M 0.105469 0.21875 " clip-rule="nonzero"/></clipPath><clipPath id="10b2f1a3ed"><rect x="0" width="40" y="0" height="38"/></clipPath><clipPath id="f386226a87"><path d="M 336.785156 827.53125 L 391.4375 827.53125 L 391.4375 893.648438 L 336.785156 893.648438 Z M 336.785156 827.53125 " clip-rule="nonzero"/></clipPath><clipPath id="dc17af692c"><path d="M 0.785156 0.53125 L 55.4375 0.53125 L 55.4375 66.648438 L 0.785156 66.648438 Z M 0.785156 0.53125 " clip-rule="nonzero"/></clipPath><clipPath id="3f973fb0c3"><rect x="0" width="56" y="0" height="67"/></clipPath><clipPath id="09b5586e6c"><path d="M 87.027344 650.976562 L 146.792969 650.976562 L 146.792969 705.839844 L 87.027344 705.839844 Z M 87.027344 650.976562 " clip-rule="nonzero"/></clipPath><clipPath id="3aa942c8ca"><path d="M 0.0273438 0.976562 L 59.792969 0.976562 L 59.792969 55.839844 L 0.0273438 55.839844 Z M 0.0273438 0.976562 " clip-rule="nonzero"/></clipPath><clipPath id="1c78d170d9"><rect x="0" width="60" y="0" height="56"/></clipPath><clipPath id="29eda571ee"><path d="M 290.867188 405.261719 L 336.785156 405.261719 L 336.785156 477.332031 L 290.867188 477.332031 Z M 290.867188 405.261719 " clip-rule="nonzero"/></clipPath><clipPath id="89fe0e340e"><path d="M 0.867188 0.261719 L 46.785156 0.261719 L 46.785156 72.332031 L 0.867188 72.332031 Z M 0.867188 0.261719 " clip-rule="nonzero"/></clipPath><clipPath id="7f54fc2fa6"><rect x="0" width="47" y="0" height="73"/></clipPath><clipPath id="8c4d35adde"><path d="M 505.425781 893.648438 L 571.890625 893.648438 L 571.890625 958.546875 L 505.425781 958.546875 Z M 505.425781 893.648438 " clip-rule="nonzero"/></clipPath><clipPath id="539fa3a249"><path d="M 0.425781 0.648438 L 66.890625 0.648438 L 66.890625 65.546875 L 0.425781 65.546875 Z M 0.425781 0.648438 " clip-rule="nonzero"/></clipPath><clipPath id="59f7aef524"><rect x="0" width="67" y="0" height="66"/></clipPath><clipPath id="5d8d447b65"><path d="M 391.4375 1027.367188 L 446.089844 1027.367188 L 446.089844 1093.480469 L 391.4375 1093.480469 Z M 391.4375 1027.367188 " clip-rule="nonzero"/></clipPath><clipPath id="b235862f06"><path d="M 0.4375 0.367188 L 55.089844 0.367188 L 55.089844 66.480469 L 0.4375 66.480469 Z M 0.4375 0.367188 " clip-rule="nonzero"/></clipPath><clipPath id="9b34da2733"><rect x="0" width="56" y="0" height="67"/></clipPath><clipPath id="8929cc892b"><path d="M 431.953125 761.417969 L 486.605469 761.417969 L 486.605469 827.53125 L 431.953125 827.53125 Z M 431.953125 761.417969 " clip-rule="nonzero"/></clipPath><clipPath id="87f2422543"><path d="M 0.953125 0.417969 L 55.605469 0.417969 L 55.605469 66.53125 L 0.953125 66.53125 Z M 0.953125 0.417969 " clip-rule="nonzero"/></clipPath><clipPath id="0dc70f4608"><rect x="0" width="56" y="0" height="67"/></clipPath><clipPath id="5efe7fe8e1"><path d="M 336.785156 601.929688 L 391.4375 601.929688 L 391.4375 668.042969 L 336.785156 668.042969 Z M 336.785156 601.929688 " clip-rule="nonzero"/></clipPath><clipPath id="f0015b963b"><path d="M 0.785156 0.929688 L 55.4375 0.929688 L 55.4375 67.042969 L 0.785156 67.042969 Z M 0.785156 0.929688 " clip-rule="nonzero"/></clipPath><clipPath id="7191176374"><rect x="0" width="56" y="0" height="68"/></clipPath><clipPath id="dcc91acb0b"><path d="M 199.976562 524.773438 L 291.261719 524.773438 L 291.261719 613.414062 L 199.976562 613.414062 Z M 199.976562 524.773438 " clip-rule="nonzero"/></clipPath><clipPath id="ff5404a9cf"><path d="M 0.976562 0.773438 L 92.261719 0.773438 L 92.261719 89.414062 L 0.976562 89.414062 Z M 0.976562 0.773438 " clip-rule="nonzero"/></clipPath><clipPath id="4e3f1e349a"><rect x="0" width="93" y="0" height="90"/></clipPath><clipPath id="5d251e12cf"><path d="M 167.683594 925.488281 L 222.335938 925.488281 L 222.335938 991.605469 L 167.683594 991.605469 Z M 167.683594 925.488281 " clip-rule="nonzero"/></clipPath><clipPath id="6f29f17637"><path d="M 0.683594 0.488281 L 55.335938 0.488281 L 55.335938 66.605469 L 0.683594 66.605469 Z M 0.683594 0.488281 " clip-rule="nonzero"/></clipPath><clipPath id="ea7261bc45"><rect x="0" width="56" y="0" height="67"/></clipPath><clipPath id="44c4b5d634"><path d="M 224.953125 794.472656 L 279.605469 794.472656 L 279.605469 860.589844 L 224.953125 860.589844 Z M 224.953125 794.472656 " clip-rule="nonzero"/></clipPath><clipPath id="0e3dadda34"><path d="M 0.953125 0.472656 L 55.605469 0.472656 L 55.605469 66.589844 L 0.953125 66.589844 Z M 0.953125 0.472656 " clip-rule="nonzero"/></clipPath><clipPath id="6bc46c682c"><rect x="0" width="56" y="0" height="67"/></clipPath><clipPath id="2bc9321c47"><path d="M 279.605469 986.90625 L 350.339844 986.90625 L 350.339844 1126.539062 L 279.605469 1126.539062 Z M 279.605469 986.90625 " clip-rule="nonzero"/></clipPath><clipPath id="6260d0bff8"><path d="M 0.605469 0.90625 L 71.339844 0.90625 L 71.339844 140.539062 L 0.605469 140.539062 Z M 0.605469 0.90625 " clip-rule="nonzero"/></clipPath><clipPath id="d39c13216d"><rect x="0" width="72" y="0" height="141"/></clipPath><clipPath id="aad65c2bdc"><path d="M 446.089844 1126.539062 L 541.257812 1126.539062 L 541.257812 1322.46875 L 446.089844 1322.46875 Z M 446.089844 1126.539062 " clip-rule="nonzero"/></clipPath><clipPath id="5668b4806c"><path d="M 0.0898438 0.539062 L 95.257812 0.539062 L 95.257812 196.46875 L 0.0898438 196.46875 Z M 0.0898438 0.539062 " clip-rule="nonzero"/></clipPath><clipPath id="679e98b582"><rect x="0" width="96" y="0" height="197"/></clipPath><clipPath id="7b40572870"><path d="M 0 211.226562 L 91.789062 211.226562 L 91.789062 315.273438 L 0 315.273438 Z M 0 211.226562 " clip-rule="nonzero"/></clipPath><clipPath id="adc131b5c8"><path d="M 0 0.226562 L 91.789062 0.226562 L 91.789062 104.273438 L 0 104.273438 Z M 0 0.226562 " clip-rule="nonzero"/></clipPath><clipPath id="fddf56985d"><rect x="0" width="92" y="0" height="105"/></clipPath><clipPath id="b8eb0213ad"><path d="M 107.585938 721.722656 L 199.375 721.722656 L 199.375 794.472656 L 107.585938 794.472656 Z M 107.585938 721.722656 " clip-rule="nonzero"/></clipPath><clipPath id="a5eaa07411"><path d="M 0.585938 0.722656 L 92.375 0.722656 L 92.375 73.472656 L 0.585938 73.472656 Z M 0.585938 0.722656 " clip-rule="nonzero"/></clipPath><clipPath id="24a87ee600"><rect x="0" width="93" y="0" height="74"/></clipPath><clipPath id="f46ed8347d"><rect x="0" width="810" y="0" height="1440"/></clipPath><clipPath id="65e8979867"><rect x="0" width="810" y="0" height="1440"/></clipPath></defs><g mask="url(#90a45aa862)"><g transform="matrix(1, 0, 0, 1, 0, -0.000000000000101068)"><g clip-path="url(#65e8979867)"><g transform="matrix(1, 0, 0, 1, 0, -0.000000000000101068)"><g clip-path="url(#f46ed8347d)"><g clip-path="url(#693626c37f)"><g transform="matrix(1, 0, 0, 1, 755, 1373)"><g clip-path="url(#df4112a547)"><g clip-path="url(#b866572f9c)"><path fill="#003c0a" d="M 0.347656 0.882812 L 55 0.882812 L 55 67.0625 L 0.347656 67.0625 Z M 0.347656 0.882812 " fill-opacity="1" fill-rule="nonzero"/></g></g></g></g><g mask="url(#03cdcd828c)"><g transform="matrix(1, 0, 0, 1, 587, 1225)"><g clip-path="url(#e324ec8196)"><g clip-path="url(#e88e26f70f)"><g transform="matrix(1, 0, 0, 1, 0.000000000000113687, -0.000000000000227374)"><g clip-path="url(#eee8e62278)"><g clip-path="url(#1174c4d441)"><path fill="#003c0a" d="M 0.800781 0.664062 L 90.410156 0.664062 L 90.410156 99.726562 L 0.800781 99.726562 Z M 0.800781 0.664062 " fill-opacity="1" fill-rule="nonzero"/></g></g></g></g></g></g></g><g mask="url(#743d7626ff)"><g transform="matrix(1, 0, 0, 1, 632, 1095)"><g clip-path="url(#ba41d898b2)"><g clip-path="url(#cac9503e9f)"><g><g clip-path="url(#98d80df225)"><g clip-path="url(#3a8d6be791)"><path fill="#007012" d="M 0.605469 0.847656 L 55.257812 0.847656 L 55.257812 67.03125 L 0.605469 67.03125 Z M 0.605469 0.847656 " fill-opacity="1" fill-rule="nonzero"/></g></g></g></g></g></g></g><g mask="url(#1686a7ccd0)"><g transform="matrix(1, 0, 0, 1, 56, 107)"><g clip-path="url(#2520e0dbfb)"><g clip-path="url(#a2f1c405f8)"><g transform="matrix(1, 0, 0, 1, -0.000000000000007105, -0.000000000000099476)"><g clip-path="url(#89febeac2c)"><g clip-path="url(#4a32b3b226)"><path fill="#003c0a" d="M 0.601562 0.496094 L 51.585938 0.496094 L 51.585938 93.703125 L 0.601562 93.703125 Z M 0.601562 0.496094 " fill-opacity="1" fill-rule="nonzero"/></g></g></g></g></g></g></g><g mask="url(#9700de6ed0)"><g transform="matrix(1, 0, 0, 1, 111, 216)"><g clip-path="url(#476f5d878e)"><g clip-path="url(#633f5eedb8)"><g transform="matrix(1, 0, 0, 1, 0, -0.000000000000113687)"><g clip-path="url(#f721fbc42d)"><g clip-path="url(#32eb4cd240)"><path fill="#007012" d="M 0.261719 0.136719 L 151.988281 0.136719 L 151.988281 205.796875 L 0.261719 205.796875 Z M 0.261719 0.136719 " fill-opacity="1" fill-rule="nonzero"/></g></g></g></g></g></g></g><g mask="url(#74d79bb72f)"><g transform="matrix(1, 0, 0, 1, 146, 476)"><g clip-path="url(#21217c22cc)"><g clip-path="url(#989cc65f69)"><g transform="matrix(1, 0, 0, 1, 0, -0.000000000000113687)"><g clip-path="url(#5e4ec4e840)"><g clip-path="url(#aa4968ffb7)"><path fill="#003c0a" d="M 0.433594 0.722656 L 87.042969 0.722656 L 87.042969 128.613281 L 0.433594 128.613281 Z M 0.433594 0.722656 " fill-opacity="1" fill-rule="nonzero"/></g></g></g></g></g></g></g><g mask="url(#210c0966fa)"><g transform="matrix(1, 0, 0, 1, 233, 35)"><g clip-path="url(#c38385c313)"><g clip-path="url(#bca7dc9c57)"><g transform="matrix(1, 0, 0, 1, 0, -0.000000000000099476)"><g clip-path="url(#175a0c6ad8)"><g clip-path="url(#65ab91ea98)"><path fill="#003c0a" d="M 0.367188 0.425781 L 46.289062 0.425781 L 46.289062 72.535156 L 0.367188 72.535156 Z M 0.367188 0.425781 " fill-opacity="1" fill-rule="nonzero"/></g></g></g></g></g></g></g><g mask="url(#9f0a54b134)"><g transform="matrix(1, 0, 0, 1, 77, 400)"><g clip-path="url(#16f8679452)"><g clip-path="url(#c384f61314)"><g transform="matrix(1, 0, 0, 1, 0, -0.000000000000113687)"><g clip-path="url(#bd5c88cfaf)"><g clip-path="url(#f0bfec261e)"><path fill="#003c0a" d="M 0.8125 0.644531 L 40.628906 0.644531 L 40.628906 37.980469 L 0.8125 37.980469 Z M 0.8125 0.644531 " fill-opacity="1" fill-rule="nonzero"/></g></g></g></g></g></g></g><g clip-path="url(#6609f31349)"><g transform="matrix(1, 0, 0, 1, 347, 862)"><g clip-path="url(#9ecef19af5)"><g clip-path="url(#37d022a990)"><path fill="#003c0a" d="M 0.496094 0.957031 L 55.148438 0.957031 L 55.148438 67.136719 L 0.496094 67.136719 Z M 0.496094 0.957031 " fill-opacity="1" fill-rule="nonzero"/></g></g></g></g><g mask="url(#3dea957f5f)"><g transform="matrix(1, 0, 0, 1, 97, 686)"><g clip-path="url(#268a26b00d)"><g clip-path="url(#aeb3619055)"><g transform="matrix(1, 0, 0, 1, 0, -0.000000000000113687)"><g clip-path="url(#964d5989a1)"><g clip-path="url(#146ff39c7d)"><path fill="#007012" d="M 0.738281 0.402344 L 60.53125 0.402344 L 60.53125 55.265625 L 0.738281 55.265625 Z M 0.738281 0.402344 " fill-opacity="1" fill-rule="nonzero"/></g></g></g></g></g></g></g><g mask="url(#06744689b2)"><g transform="matrix(1, 0, 0, 1, 301, 440)"><g clip-path="url(#07b4cd08e7)"><g clip-path="url(#b7e3c530ee)"><g transform="matrix(1, 0, 0, 1, 0, -0.000000000000113687)"><g clip-path="url(#567b6e5517)"><g clip-path="url(#d589f8d33f)"><path fill="#003c0a" d="M 0.574219 0.6875 L 46.496094 0.6875 L 46.496094 72.796875 L 0.574219 72.796875 Z M 0.574219 0.6875 " fill-opacity="1" fill-rule="nonzero"/></g></g></g></g></g></g></g><g clip-path="url(#13c5e721c7)"><g transform="matrix(1, 0, 0, 1, 516, 929)"><g clip-path="url(#bdd9e5c8b3)"><g clip-path="url(#999b44594c)"><path fill="#003c0a" d="M 0.136719 0.0742188 L 66.558594 0.0742188 L 66.558594 64.972656 L 0.136719 64.972656 Z M 0.136719 0.0742188 " fill-opacity="1" fill-rule="nonzero"/></g></g></g></g><g mask="url(#b096b0e067)"><g transform="matrix(1, 0, 0, 1, 402, 1062)"><g clip-path="url(#a5ed7a718a)"><g clip-path="url(#9ac6998280)"><g><g clip-path="url(#799f1f034d)"><g clip-path="url(#21055003ab)"><path fill="#003c0a" d="M 0.148438 0.792969 L 54.796875 0.792969 L 54.796875 66.972656 L 0.148438 66.972656 Z M 0.148438 0.792969 " fill-opacity="1" fill-rule="nonzero"/></g></g></g></g></g></g></g><g clip-path="url(#9f58cd204c)"><g transform="matrix(1, 0, 0, 1, 442, 796)"><g clip-path="url(#e66e8aaeb3)"><g clip-path="url(#9211103da9)"><path fill="#003c0a" d="M 0.664062 0.839844 L 55.316406 0.839844 L 55.316406 67.019531 L 0.664062 67.019531 Z M 0.664062 0.839844 " fill-opacity="1" fill-rule="nonzero"/></g></g></g></g><g mask="url(#a09c8e3eee)"><g transform="matrix(1, 0, 0, 1, 347, 637)"><g clip-path="url(#438602888f)"><g clip-path="url(#d7e6450234)"><g transform="matrix(1, 0, 0, 1, 0, -0.000000000000113687)"><g clip-path="url(#a3383fdaab)"><g clip-path="url(#507deda18a)"><path fill="#007012" d="M 0.496094 0.351562 L 55.148438 0.351562 L 55.148438 66.535156 L 0.496094 66.535156 Z M 0.496094 0.351562 " fill-opacity="1" fill-rule="nonzero"/></g></g></g></g></g></g></g><g clip-path="url(#a302c5b2c2)"><g transform="matrix(1, 0, 0, 1, 210, 653)"><g clip-path="url(#e4e09fcb68)"><g clip-path="url(#9c7e1bf179)"><path fill="#003c0a" d="M 0.0859375 0.523438 L 91.492188 0.523438 L 91.492188 89.160156 L 0.0859375 89.160156 Z M 0.0859375 0.523438 " fill-opacity="1" fill-rule="nonzero"/></g></g></g></g><g mask="url(#78b2be0c3b)"><g transform="matrix(1, 0, 0, 1, 178, 960)"><g clip-path="url(#500dd18640)"><g clip-path="url(#1595d3caca)"><g transform="matrix(1, 0, 0, 1, 0, -0.000000000000113687)"><g clip-path="url(#c923638429)"><g clip-path="url(#ce98f9b35e)"><path fill="#007012" d="M 0.394531 0.914062 L 55.042969 0.914062 L 55.042969 67.09375 L 0.394531 67.09375 Z M 0.394531 0.914062 " fill-opacity="1" fill-rule="nonzero"/></g></g></g></g></g></g></g><g mask="url(#7b9f5c761d)"><g transform="matrix(1, 0, 0, 1, 235, 829)"><g clip-path="url(#60571c8fd4)"><g clip-path="url(#b89d58d8a1)"><g transform="matrix(1, 0, 0, 1, 0, -0.000000000000113687)"><g clip-path="url(#b97a12f62d)"><g clip-path="url(#e9fa826943)"><path fill="#003c0a" d="M 0.660156 0.898438 L 55.3125 0.898438 L 55.3125 67.078125 L 0.660156 67.078125 Z M 0.660156 0.898438 " fill-opacity="1" fill-rule="nonzero"/></g></g></g></g></g></g></g><g mask="url(#2d00419077)"><g transform="matrix(1, 0, 0, 1, 290, 1022)"><g clip-path="url(#a8a270c5ff)"><g clip-path="url(#26472f2a11)"><g transform="matrix(1, 0, 0, 1, -0.000000000000056843, -0.000000000000113687)"><g clip-path="url(#b78e7817d0)"><g clip-path="url(#9298bac7f8)"><path fill="#003c0a" d="M 0.3125 0.328125 L 71.050781 0.328125 L 71.050781 139.867188 L 0.3125 139.867188 Z M 0.3125 0.328125 " fill-opacity="1" fill-rule="nonzero"/></g></g></g></g></g></g></g><g mask="url(#b7affa0088)"><g transform="matrix(1, 0, 0, 1, 456, 1161)"><g clip-path="url(#385c295eb5)"><g clip-path="url(#ec3f52472e)"><g><g clip-path="url(#935b3eaefd)"><g clip-path="url(#864ebf3f16)"><path fill="#003c0a" d="M 0.796875 0.964844 L 95.964844 0.964844 L 95.964844 196.878906 L 0.796875 196.878906 Z M 0.796875 0.964844 " fill-opacity="1" fill-rule="nonzero"/></g></g></g></g></g></g></g><g mask="url(#f294ec2352)"><g transform="matrix(1, 0, 0, 1, 10, 246)"><g clip-path="url(#383b87c31f)"><g clip-path="url(#7ed49e2de3)"><g transform="matrix(1, 0, 0, 1, 0, -0.000000000000113687)"><g clip-path="url(#a918297a16)"><g clip-path="url(#6d2acb92f8)"><path fill="#046714" d="M 0.707031 0.648438 L 92.496094 0.648438 L 92.496094 104.628906 L 0.707031 104.628906 Z M 0.707031 0.648438 " fill-opacity="1" fill-rule="nonzero"/></g></g></g></g></g></g></g><g clip-path="url(#5d534452b0)"><g transform="matrix(1, 0, 0, 1, 118, 757)"><g clip-path="url(#ec8b9f529c)"><g clip-path="url(#c346bf7afc)"><path fill="#003c0a" d="M 0.296875 0.148438 L 92.089844 0.148438 L 92.089844 72.898438 L 0.296875 72.898438 Z M 0.296875 0.148438 " fill-opacity="1" fill-rule="nonzero"/></g></g></g></g><g clip-path="url(#b0193533da)"><g transform="matrix(1, 0, 0, 1, 744, 1338)"><g clip-path="url(#b52d14fd20)"><g clip-path="url(#4522749288)"><path fill="#007012" d="M 0.640625 0.460938 L 55.292969 0.460938 L 55.292969 66.640625 L 0.640625 66.640625 Z M 0.640625 0.460938 " fill-opacity="1" fill-rule="nonzero"/></g></g></g></g><g clip-path="url(#5a6fed235a)"><g transform="matrix(1, 0, 0, 1, 577, 1190)"><g clip-path="url(#f1e7b9b358)"><g clip-path="url(#0732ebea78)"><path fill="#007012" d="M 0.0898438 0.238281 L 89.703125 0.238281 L 89.703125 99.300781 L 0.0898438 99.300781 Z M 0.0898438 0.238281 " fill-opacity="1" fill-rule="nonzero"/></g></g></g></g><g clip-path="url(#aad627fffe)"><g transform="matrix(1, 0, 0, 1, 621, 1060)"><g clip-path="url(#ffa1c160a7)"><g clip-path="url(#4cdcd426ae)"><path fill="#007012" d="M 0.894531 0.425781 L 55.546875 0.425781 L 55.546875 66.605469 L 0.894531 66.605469 Z M 0.894531 0.425781 " fill-opacity="1" fill-rule="nonzero"/></g></g></g></g><g clip-path="url(#fb62e0eb0f)"><g transform="matrix(1, 0, 0, 1, 45, 72)"><g clip-path="url(#7b28b93b97)"><g clip-path="url(#f3f712f102)"><path fill="#007012" d="M 0.894531 0.0703125 L 51.878906 0.0703125 L 51.878906 93.277344 L 0.894531 93.277344 Z M 0.894531 0.0703125 " fill-opacity="1" fill-rule="nonzero"/></g></g></g></g><g clip-path="url(#5fd8da6721)"><g transform="matrix(1, 0, 0, 1, 135, 196)"><g clip-path="url(#e7a5b92877)"><g clip-path="url(#1bfbc09a12)"><path fill="#007012" d="M 0.722656 0.699219 L 152.449219 0.699219 L 152.449219 206.359375 L 0.722656 206.359375 Z M 0.722656 0.699219 " fill-opacity="1" fill-rule="nonzero"/></g></g></g></g><g clip-path="url(#d79dc259a8)"><g transform="matrix(1, 0, 0, 1, 135, 441)"><g clip-path="url(#35909757c6)"><g clip-path="url(#6ebf3209fc)"><path fill="#007012" d="M 0.722656 0.296875 L 87.335938 0.296875 L 87.335938 128.1875 L 0.722656 128.1875 Z M 0.722656 0.296875 " fill-opacity="1" fill-rule="nonzero"/></g></g></g></g><g clip-path="url(#1073952dbd)"><g transform="matrix(1, 0, 0, 1, 222, -0.000000000000101068)"><g clip-path="url(#72a394323f)"><g clip-path="url(#278e705523)"><path fill="#007012" d="M 0.660156 0 L 46.578125 0 L 46.578125 72.109375 L 0.660156 72.109375 Z M 0.660156 0 " fill-opacity="1" fill-rule="nonzero"/></g></g></g></g><g clip-path="url(#5c2907f6de)"><g transform="matrix(1, 0, 0, 1, 67, 365)"><g clip-path="url(#10b2f1a3ed)"><g clip-path="url(#d796270479)"><path fill="#007012" d="M 0.105469 0.21875 L 39.921875 0.21875 L 39.921875 37.554688 L 0.105469 37.554688 Z M 0.105469 0.21875 " fill-opacity="1" fill-rule="nonzero"/></g></g></g></g><g clip-path="url(#f386226a87)"><g transform="matrix(1, 0, 0, 1, 336, 827)"><g clip-path="url(#3f973fb0c3)"><g clip-path="url(#dc17af692c)"><path fill="#007012" d="M 0.785156 0.53125 L 55.4375 0.53125 L 55.4375 66.710938 L 0.785156 66.710938 Z M 0.785156 0.53125 " fill-opacity="1" fill-rule="nonzero"/></g></g></g></g><g clip-path="url(#09b5586e6c)"><g transform="matrix(1, 0, 0, 1, 87, 650)"><g clip-path="url(#1c78d170d9)"><g clip-path="url(#3aa942c8ca)"><path fill="#007012" d="M 0.0273438 0.976562 L 59.820312 0.976562 L 59.820312 55.839844 L 0.0273438 55.839844 Z M 0.0273438 0.976562 " fill-opacity="1" fill-rule="nonzero"/></g></g></g></g><g clip-path="url(#29eda571ee)"><g transform="matrix(1, 0, 0, 1, 290, 405)"><g clip-path="url(#7f54fc2fa6)"><g clip-path="url(#89fe0e340e)"><path fill="#007012" d="M 0.867188 0.261719 L 46.785156 0.261719 L 46.785156 72.371094 L 0.867188 72.371094 Z M 0.867188 0.261719 " fill-opacity="1" fill-rule="nonzero"/></g></g></g></g><g clip-path="url(#8c4d35adde)"><g transform="matrix(1, 0, 0, 1, 505, 893)"><g clip-path="url(#59f7aef524)"><g clip-path="url(#539fa3a249)"><path fill="#007012" d="M 0.425781 0.648438 L 66.847656 0.648438 L 66.847656 65.546875 L 0.425781 65.546875 Z M 0.425781 0.648438 " fill-opacity="1" fill-rule="nonzero"/></g></g></g></g><g clip-path="url(#5d8d447b65)"><g transform="matrix(1, 0, 0, 1, 391, 1027)"><g clip-path="url(#9b34da2733)"><g clip-path="url(#b235862f06)"><path fill="#007012" d="M 0.4375 0.367188 L 55.089844 0.367188 L 55.089844 66.546875 L 0.4375 66.546875 Z M 0.4375 0.367188 " fill-opacity="1" fill-rule="nonzero"/></g></g></g></g><g clip-path="url(#8929cc892b)"><g transform="matrix(1, 0, 0, 1, 431, 761)"><g clip-path="url(#0dc70f4608)"><g clip-path="url(#87f2422543)"><path fill="#007012" d="M 0.953125 0.417969 L 55.605469 0.417969 L 55.605469 66.597656 L 0.953125 66.597656 Z M 0.953125 0.417969 " fill-opacity="1" fill-rule="nonzero"/></g></g></g></g><g clip-path="url(#5efe7fe8e1)"><g transform="matrix(1, 0, 0, 1, 336, 601)"><g clip-path="url(#7191176374)"><g clip-path="url(#f0015b963b)"><path fill="#007012" d="M 0.785156 0.929688 L 55.4375 0.929688 L 55.4375 67.109375 L 0.785156 67.109375 Z M 0.785156 0.929688 " fill-opacity="1" fill-rule="nonzero"/></g></g></g></g><g clip-path="url(#dcc91acb0b)"><g transform="matrix(1, 0, 0, 1, 199, 524)"><g clip-path="url(#4e3f1e349a)"><g clip-path="url(#ff5404a9cf)"><path fill="#007012" d="M 0.976562 0.773438 L 92.382812 0.773438 L 92.382812 89.414062 L 0.976562 89.414062 Z M 0.976562 0.773438 " fill-opacity="1" fill-rule="nonzero"/></g></g></g></g><g clip-path="url(#5d251e12cf)"><g transform="matrix(1, 0, 0, 1, 167, 925)"><g clip-path="url(#ea7261bc45)"><g clip-path="url(#6f29f17637)"><path fill="#007012" d="M 0.683594 0.488281 L 55.335938 0.488281 L 55.335938 66.671875 L 0.683594 66.671875 Z M 0.683594 0.488281 " fill-opacity="1" fill-rule="nonzero"/></g></g></g></g><g clip-path="url(#44c4b5d634)"><g transform="matrix(1, 0, 0, 1, 224, 794)"><g clip-path="url(#6bc46c682c)"><g clip-path="url(#0e3dadda34)"><path fill="#007012" d="M 0.953125 0.472656 L 55.605469 0.472656 L 55.605469 66.652344 L 0.953125 66.652344 Z M 0.953125 0.472656 " fill-opacity="1" fill-rule="nonzero"/></g></g></g></g><g clip-path="url(#2bc9321c47)"><g transform="matrix(1, 0, 0, 1, 279, 986)"><g clip-path="url(#d39c13216d)"><g clip-path="url(#6260d0bff8)"><path fill="#007012" d="M 0.605469 0.90625 L 71.339844 0.90625 L 71.339844 140.441406 L 0.605469 140.441406 Z M 0.605469 0.90625 " fill-opacity="1" fill-rule="nonzero"/></g></g></g></g><g clip-path="url(#aad65c2bdc)"><g transform="matrix(1, 0, 0, 1, 446, 1126)"><g clip-path="url(#679e98b582)"><g clip-path="url(#5668b4806c)"><path fill="#007012" d="M 0.0898438 0.539062 L 95.257812 0.539062 L 95.257812 196.453125 L 0.0898438 196.453125 Z M 0.0898438 0.539062 " fill-opacity="1" fill-rule="nonzero"/></g></g></g></g><g clip-path="url(#7b40572870)"><g transform="matrix(1, 0, 0, 1, 0, 211)"><g clip-path="url(#fddf56985d)"><g clip-path="url(#adc131b5c8)"><path fill="#007012" d="M 0 0.226562 L 91.789062 0.226562 L 91.789062 104.203125 L 0 104.203125 Z M 0 0.226562 " fill-opacity="1" fill-rule="nonzero"/></g></g></g></g><g clip-path="url(#b8eb0213ad)"><g transform="matrix(1, 0, 0, 1, 107, 721)"><g clip-path="url(#24a87ee600)"><g clip-path="url(#a5eaa07411)"><path fill="#007012" d="M 0.585938 0.722656 L 92.378906 0.722656 L 92.378906 73.472656 L 0.585938 73.472656 Z M 0.585938 0.722656 " fill-opacity="1" fill-rule="nonzero"/></g></g></g></g></g></g></g></g></g></svg>