<svg xmlns="http://www.w3.org/2000/svg" xmlns:xlink="http://www.w3.org/1999/xlink" width="1920" zoomAndPan="magnify" viewBox="0 0 1440 809.999993" height="1080" preserveAspectRatio="xMidYMid meet" version="1.0"><defs><clipPath id="5eaf703528"><path d="M 639 343.074219 L 800.929688 343.074219 L 800.929688 541.824219 L 639 541.824219 Z M 639 343.074219 " clip-rule="nonzero"/></clipPath></defs><g clip-path="url(#5eaf703528)"><path fill="#00ec6a" d="M 706.195312 459.535156 L 751.101562 414.585938 C 751.335938 414.363281 751.585938 414.164062 751.855469 413.988281 C 752.128906 413.8125 752.414062 413.664062 752.710938 413.542969 C 753.011719 413.421875 753.320312 413.332031 753.636719 413.269531 C 753.953125 413.207031 754.269531 413.175781 754.59375 413.175781 C 754.917969 413.171875 755.234375 413.203125 755.554688 413.261719 C 755.871094 413.324219 756.179688 413.414062 756.476562 413.53125 C 756.777344 413.652344 757.0625 413.796875 757.335938 413.96875 C 757.605469 414.144531 757.859375 414.339844 758.09375 414.5625 C 758.324219 414.792969 758.53125 415.042969 758.710938 415.3125 C 758.890625 415.582031 759.042969 415.867188 759.167969 416.167969 C 759.292969 416.464844 759.386719 416.773438 759.453125 417.09375 C 759.515625 417.410156 759.546875 417.734375 759.550781 418.058594 C 759.550781 418.382812 759.519531 418.703125 759.457031 419.023438 C 759.394531 419.339844 759.304688 419.648438 759.179688 419.949219 C 759.058594 420.25 758.90625 420.535156 758.726562 420.808594 C 758.546875 421.078125 758.34375 421.328125 758.117188 421.558594 L 709.125 470.597656 C 708.664062 471.0625 708.128906 471.421875 707.523438 471.675781 C 706.917969 471.925781 706.289062 472.054688 705.628906 472.054688 L 705.613281 472.054688 C 704.960938 472.054688 704.335938 471.929688 703.730469 471.683594 C 703.128906 471.433594 702.59375 471.078125 702.132812 470.617188 C 701.933594 470.417969 701.75 470.203125 701.585938 469.96875 L 681.414062 445.992188 C 681.21875 445.730469 681.054688 445.449219 680.917969 445.152344 C 680.777344 444.859375 680.671875 444.550781 680.59375 444.234375 C 680.515625 443.917969 680.472656 443.59375 680.457031 443.269531 C 680.445312 442.941406 680.464844 442.617188 680.515625 442.296875 C 680.566406 441.972656 680.648438 441.65625 680.761719 441.351562 C 680.875 441.046875 681.015625 440.753906 681.1875 440.476562 C 681.359375 440.195312 681.554688 439.9375 681.777344 439.699219 C 682 439.460938 682.242188 439.246094 682.507812 439.054688 C 682.773438 438.863281 683.054688 438.699219 683.351562 438.566406 C 683.648438 438.429688 683.957031 438.324219 684.273438 438.25 C 684.59375 438.175781 684.914062 438.132812 685.242188 438.121094 C 685.566406 438.113281 685.890625 438.132812 686.214844 438.1875 C 686.535156 438.242188 686.847656 438.324219 687.15625 438.441406 C 687.460938 438.558594 687.75 438.703125 688.027344 438.875 C 688.304688 439.046875 688.5625 439.246094 688.800781 439.472656 C 689.035156 439.695312 689.25 439.941406 689.4375 440.207031 Z M 800.832031 455.828125 C 800.953125 470.558594 792.394531 487.9375 776.726562 504.761719 C 769.976562 511.996094 762.582031 518.496094 754.546875 524.265625 L 754.199219 524.492188 C 754.058594 524.570312 753.925781 524.660156 753.800781 524.769531 L 753.476562 525.03125 C 743.902344 531.9375 733.542969 537.355469 722.40625 541.273438 L 721 541.742188 L 719.582031 541.296875 C 716.191406 540.214844 712.867188 538.957031 709.609375 537.527344 C 709.40625 537.421875 709.199219 537.332031 708.988281 537.25 L 708.710938 537.136719 C 700.460938 533.296875 692.636719 528.738281 685.230469 523.453125 C 677.828125 518.167969 670.972656 512.246094 664.664062 505.695312 C 657.992188 498.898438 652.289062 491.367188 647.550781 483.105469 L 647.378906 482.757812 C 647.304688 482.605469 647.21875 482.457031 647.117188 482.320312 L 646.925781 482 C 644.742188 478.210938 643.042969 474.21875 641.828125 470.019531 C 640.613281 465.820312 639.921875 461.535156 639.746094 457.167969 L 639.167969 386.308594 L 639.511719 386.117188 L 719.34375 343.074219 L 719.652344 343.234375 L 800.242188 384.996094 Z M 791.136719 390.585938 L 719.4375 353.449219 L 648.382812 391.757812 L 648.921875 457.09375 C 649.089844 460.6875 649.683594 464.207031 650.699219 467.660156 C 651.714844 471.109375 653.121094 474.390625 654.925781 477.503906 C 655.199219 477.921875 655.441406 478.359375 655.652344 478.8125 C 659.988281 486.316406 665.195312 493.15625 671.265625 499.339844 C 677.148438 505.453125 683.539062 510.976562 690.441406 515.914062 C 697.339844 520.851562 704.632812 525.113281 712.320312 528.707031 C 712.730469 528.859375 713.132812 529.03125 713.523438 529.230469 C 715.96875 530.277344 718.535156 531.277344 720.914062 532.078125 C 730.59375 528.480469 739.628906 523.667969 748.015625 517.644531 C 748.441406 517.289062 748.890625 516.972656 749.367188 516.683594 C 756.839844 511.300781 763.722656 505.242188 770.007812 498.507812 C 784.070312 483.40625 791.757812 468.273438 791.65625 455.894531 Z M 791.136719 390.585938 " fill-opacity="1" fill-rule="nonzero"/></g></svg>